<mxfile host="app.diagrams.net" modified="2023-07-27T11:07:25.786Z" agent="Mozilla/5.0 (Windows NT 10.0; Win64; x64) AppleWebKit/537.36 (KHTML, like Gecko) Chrome/115.0.0.0 Safari/537.36" version="21.6.5" etag="hrT3opIq4GkaXvJ8K6L_" type="github">
  <diagram name="第 1 页" id="6LfEnrzfpUrzSInTq5Bo">
    <mxGraphModel>
      <root>
        <mxCell id="0" />
        <mxCell id="1" parent="0" />
      </root>
    </mxGraphModel>
  </diagram>
</mxfile>
